<?xml version="1.0" encoding="UTF-8" standalone="no"?>
<!DOCTYPE svg PUBLIC "-//W3C//DTD SVG 1.1//EN"
 "http://www.w3.org/Graphics/SVG/1.1/DTD/svg11.dtd">
<!-- Generated by graphviz version 14.1.3 (20260303.0454)
 -->
<!-- Title: General Pages: 1 -->
<svg width="893pt" height="814pt"
 viewBox="0.00 0.00 893.00 814.00" xmlns="http://www.w3.org/2000/svg" xmlns:xlink="http://www.w3.org/1999/xlink">
<g id="graph0" class="graph" transform="scale(1 1) rotate(0) translate(7.2 806.6)">
<title>General</title>
<polygon fill="white" stroke="none" points="-7.2,7.2 -7.2,-806.6 885.67,-806.6 885.67,7.2 -7.2,7.2"/>
<!-- vista -->
<g id="node1" class="node">
<title>vista</title>
<polygon fill="#17304d" stroke="none" points="4,-738.4 4,-795.4 874.47,-795.4 874.47,-738.4 4,-738.4"/>
<polygon fill="none" stroke="#aab7c5" points="4,-738.4 4,-795.4 874.47,-795.4 874.47,-738.4 4,-738.4"/>
<text xml:space="preserve" text-anchor="start" x="177.42" y="-766.9" font-family="Arial" font-weight="bold" font-size="25.00" fill="white">ARQUITECTURA LÓGICA — LARAVEL / PHP</text>
<text xml:space="preserve" text-anchor="start" x="190.6" y="-748.2" font-family="Arial" font-size="18.00" fill="white">Vista general consolidada a partir del modelo de Tomás Pérez</text>
<polygon fill="none" stroke="#aab7c5" points="4,-677.2 4,-734.4 278.14,-734.4 278.14,-677.2 4,-677.2"/>
<text xml:space="preserve" text-anchor="start" x="46.52" y="-709.4" font-family="Arial" font-size="18.00">Preventista · conductor</text>
<text xml:space="preserve" text-anchor="start" x="47.02" y="-687.8" font-family="Arial" font-size="18.00">Preparador · recepción</text>
<polygon fill="none" stroke="#aab7c5" points="282.14,-677.2 282.14,-734.4 583.32,-734.4 583.32,-677.2 282.14,-677.2"/>
<text xml:space="preserve" text-anchor="start" x="323.17" y="-709.4" font-family="Arial" font-size="18.00">Calidad · rutas · gerencias</text>
<text xml:space="preserve" text-anchor="start" x="323.21" y="-687.8" font-family="Arial" font-size="18.00">Comercial · Tesorería · TI</text>
<polygon fill="none" stroke="#aab7c5" points="587.32,-677.2 587.32,-734.4 874.47,-734.4 874.47,-677.2 587.32,-677.2"/>
<text xml:space="preserve" text-anchor="start" x="654.35" y="-709.4" font-family="Arial" font-size="18.00">Clientes · cadenas</text>
<text xml:space="preserve" text-anchor="start" x="613.84" y="-687.8" font-family="Arial" font-size="18.00">Transportistas · proveedores</text>
<polygon fill="#eaf2f8" stroke="none" points="4,-623.2 4,-673.2 874.47,-673.2 874.47,-623.2 4,-623.2"/>
<polygon fill="none" stroke="#aab7c5" points="4,-623.2 4,-673.2 874.47,-673.2 874.47,-623.2 4,-623.2"/>
<text xml:space="preserve" text-anchor="start" x="143.64" y="-651" font-family="Arial" font-weight="bold" font-size="18.00">1. PRESENTACIÓN</text>
<text xml:space="preserve" text-anchor="start" x="302.67" y="-651" font-family="Arial" font-size="18.00"> — Kotlin / Room y HHT · Portales y consolas Angular</text>
<text xml:space="preserve" text-anchor="start" x="243.11" y="-633" font-family="Arial" font-size="18.00">Terreno: 14 h · Bodega y cambios de turno: 24 h</text>
<polygon fill="none" stroke="#aab7c5" points="4,-551.2 4,-619.2 278.14,-619.2 278.14,-551.2 4,-551.2"/>
<text xml:space="preserve" text-anchor="start" x="65.07" y="-597" font-family="Arial" font-weight="bold" font-size="18.00">2. BORDE LOCAL</text>
<text xml:space="preserve" text-anchor="start" x="11" y="-579" font-family="Arial" font-size="18.00">Red del sitio · control de acceso</text>
<text xml:space="preserve" text-anchor="start" x="45.53" y="-561" font-family="Arial" font-size="18.00">Greengrass: frío en CD</text>
<polygon fill="none" stroke="#aab7c5" points="282.14,-551.2 282.14,-619.2 874.47,-619.2 874.47,-551.2 282.14,-551.2"/>
<text xml:space="preserve" text-anchor="start" x="494.29" y="-588" font-family="Arial" font-weight="bold" font-size="18.00">2. BORDE PÚBLICO</text>
<text xml:space="preserve" text-anchor="start" x="360.7" y="-570" font-family="Arial" font-size="18.00">CloudFront · WAF · Shield · superficie AS2 separada</text>
<polygon fill="none" stroke="#aab7c5" points="4,-479.2 4,-547.2 278.14,-547.2 278.14,-479.2 4,-479.2"/>
<text xml:space="preserve" text-anchor="start" x="82.56" y="-525" font-family="Arial" font-weight="bold" font-size="18.00">3. API LOCAL</text>
<text xml:space="preserve" text-anchor="start" x="17.04" y="-507" font-family="Arial" font-size="18.00">HHT → puerta del sitio → WMS</text>
<text xml:space="preserve" text-anchor="start" x="15.02" y="-489" font-family="Arial" font-size="18.00">Validación y auditoría sin WAN</text>
<polygon fill="none" stroke="#aab7c5" points="282.14,-479.2 282.14,-547.2 874.47,-547.2 874.47,-479.2 282.14,-479.2"/>
<text xml:space="preserve" text-anchor="start" x="507.8" y="-525" font-family="Arial" font-weight="bold" font-size="18.00">3. API CENTRAL</text>
<text xml:space="preserve" text-anchor="start" x="402.25" y="-507" font-family="Arial" font-size="18.00">REST API · REQUEST authorizer Keycloak</text>
<text xml:space="preserve" text-anchor="start" x="422.74" y="-489" font-family="Arial" font-size="18.00">VPC Link V2 → ALB → servicio privado</text>
<polygon fill="#ffece5" stroke="none" points="4,-371.2 4,-475.2 874.47,-475.2 874.47,-371.2 4,-371.2"/>
<polygon fill="none" stroke="#aab7c5" points="4,-371.2 4,-475.2 874.47,-475.2 874.47,-371.2 4,-371.2"/>
<text xml:space="preserve" text-anchor="start" x="223.71" y="-453" font-family="Arial" font-weight="bold" font-size="18.00">4. MONOLITO MODULAR — LARAVEL 13 / PHP 8.5</text>
<text xml:space="preserve" text-anchor="start" x="207.64" y="-435" font-family="Arial" font-size="18.00">M1 Recepción · M2 Inventario · M3 Preventa · M4 Rutas</text>
<text xml:space="preserve" text-anchor="start" x="174.62" y="-417" font-family="Arial" font-size="18.00">M5 Preparación · M6 Reparto · M7 Rendición · M8 Devoluciones</text>
<text xml:space="preserve" text-anchor="start" x="185.12" y="-399" font-family="Arial" font-size="18.00">M9 Calidad · M10 Analítica · M11 Canal moderno · M12 Flota</text>
<text xml:space="preserve" text-anchor="start" x="132.85" y="-381" font-family="Arial" font-size="18.00">WMS local: M1/M2/M5 + bloqueo M9 · API y trabajadores centrales aislados</text>
<polygon fill="none" stroke="#aab7c5" points="4,-281.2 4,-367.2 278.14,-367.2 278.14,-281.2 4,-281.2"/>
<text xml:space="preserve" text-anchor="start" x="41.55" y="-336" font-family="Arial" font-weight="bold" font-size="18.00">5. EVENTOS DEL SITIO</text>
<text xml:space="preserve" text-anchor="start" x="17.02" y="-318" font-family="Arial" font-size="18.00">Outbox → RabbitMQ → shipper</text>
<text xml:space="preserve" text-anchor="start" x="34.53" y="-300" font-family="Arial" font-size="18.00">UUID y orden por partición</text>
<polygon fill="none" stroke="#aab7c5" points="282.14,-281.2 282.14,-367.2 583.32,-367.2 583.32,-281.2 282.14,-281.2"/>
<text xml:space="preserve" text-anchor="start" x="316.23" y="-345" font-family="Arial" font-weight="bold" font-size="18.00">5. INTEGRACIÓN CENTRAL</text>
<text xml:space="preserve" text-anchor="start" x="310.7" y="-327" font-family="Arial" font-size="18.00">SQS FIFO → consumidor PHP</text>
<text xml:space="preserve" text-anchor="start" x="307.17" y="-309" font-family="Arial" font-size="18.00">Trabajos Laravel en otras colas</text>
<text xml:space="preserve" text-anchor="start" x="289.14" y="-291" font-family="Arial" font-size="18.00">Hub GS1 / OpenAS2 · adaptadores</text>
<polygon fill="none" stroke="#aab7c5" points="587.32,-281.2 587.32,-367.2 874.47,-367.2 874.47,-281.2 587.32,-281.2"/>
<text xml:space="preserve" text-anchor="start" x="655.89" y="-345" font-family="Arial" font-weight="bold" font-size="18.00">CONTRAPARTES</text>
<text xml:space="preserve" text-anchor="start" x="605.86" y="-327" font-family="Arial" font-size="18.00">ACL → ERP: único emisor DTE</text>
<text xml:space="preserve" text-anchor="start" x="594.32" y="-309" font-family="Arial" font-size="18.00">Cadenas · pagos · mapas · GPS</text>
<text xml:space="preserve" text-anchor="start" x="674.87" y="-291" font-family="Arial" font-size="18.00">Notificaciones</text>
<polygon fill="none" stroke="#aab7c5" points="4,-209.2 4,-277.2 278.14,-277.2 278.14,-209.2 4,-209.2"/>
<text xml:space="preserve" text-anchor="start" x="54.06" y="-255" font-family="Arial" font-weight="bold" font-size="18.00">6. DATOS LOCALES</text>
<text xml:space="preserve" text-anchor="start" x="31.02" y="-237" font-family="Arial" font-size="18.00">Room cifrado en terminales</text>
<text xml:space="preserve" text-anchor="start" x="17.02" y="-219" font-family="Arial" font-size="18.00">PostgreSQL / PostGIS por sitio</text>
<polygon fill="none" stroke="#aab7c5" points="282.14,-209.2 282.14,-277.2 583.32,-277.2 583.32,-209.2 282.14,-209.2"/>
<text xml:space="preserve" text-anchor="start" x="312.73" y="-255" font-family="Arial" font-weight="bold" font-size="18.00">6. TRANSACCIÓN CENTRAL</text>
<text xml:space="preserve" text-anchor="start" x="313.18" y="-237" font-family="Arial" font-size="18.00">Aurora PostgreSQL / PostGIS</text>
<text xml:space="preserve" text-anchor="start" x="297.17" y="-219" font-family="Arial" font-size="18.00">Redis central · réplicas de lectura</text>
<polygon fill="none" stroke="#aab7c5" points="587.32,-209.2 587.32,-277.2 874.47,-277.2 874.47,-209.2 587.32,-209.2"/>
<text xml:space="preserve" text-anchor="start" x="615.88" y="-255" font-family="Arial" font-weight="bold" font-size="18.00">6. OBJETOS Y ANALÍTICA</text>
<text xml:space="preserve" text-anchor="start" x="596.86" y="-237" font-family="Arial" font-size="18.00">S3: POD / DTE · DynamoDB raw</text>
<text xml:space="preserve" text-anchor="start" x="632.34" y="-219" font-family="Arial" font-size="18.00">Glue / Parquet / Redshift</text>
<polygon fill="#fff3da" stroke="none" points="4,-137.2 4,-205.2 874.47,-205.2 874.47,-137.2 4,-137.2"/>
<polygon fill="none" stroke="#aab7c5" points="4,-137.2 4,-205.2 874.47,-205.2 874.47,-137.2 4,-137.2"/>
<text xml:space="preserve" text-anchor="start" x="305.22" y="-183" font-family="Arial" font-weight="bold" font-size="18.00">7. SEGURIDAD TRANSVERSAL</text>
<text xml:space="preserve" text-anchor="start" x="156.09" y="-165" font-family="Arial" font-size="18.00">Keycloak único IdP · caché local 24 h · manifiesto 26 h · PIN de turno</text>
<text xml:space="preserve" text-anchor="start" x="123.59" y="-147" font-family="Arial" font-size="18.00">Permiso: bodega 8 h / terreno 14 h · KMS / secretos · TLS / mTLS · auditoría</text>
<polygon fill="#e8f5ed" stroke="none" points="4,-65.2 4,-133.2 874.47,-133.2 874.47,-65.2 4,-65.2"/>
<polygon fill="none" stroke="#aab7c5" points="4,-65.2 4,-133.2 874.47,-133.2 874.47,-65.2 4,-65.2"/>
<text xml:space="preserve" text-anchor="start" x="278.22" y="-111" font-family="Arial" font-weight="bold" font-size="18.00">8. OBSERVABILIDAD TRANSVERSAL</text>
<text xml:space="preserve" text-anchor="start" x="166.13" y="-93" font-family="Arial" font-size="18.00">OpenTelemetry PHP / Kotlin · ADOT y alarmas locales · buffer 24 h</text>
<text xml:space="preserve" text-anchor="start" x="168.63" y="-75" font-family="Arial" font-size="18.00">CloudWatch único · transaction_id · logs, métricas, trazas y alertas</text>
<polygon fill="none" stroke="#aab7c5" points="4,-4 4,-61.2 874.47,-61.2 874.47,-4 4,-4"/>
<text xml:space="preserve" text-anchor="start" x="106.56" y="-36.2" font-family="Arial" font-size="18.00">Lectura descendente: actores → API → regla del módulo → contrato → persistencia.</text>
<text xml:space="preserve" text-anchor="start" x="129.04" y="-14.6" font-family="Arial" font-size="18.00">Seguridad y observabilidad atraviesan todas las capas; no son etapas finales.</text>
</g>
</g>
</svg>
